<svg xmlns="http://www.w3.org/2000/svg" viewBox="0 0 64 64" fill="none">
  <rect width="64" height="64" rx="12" fill="#078347"/>
  <g transform="translate(10,8)">
    <path d="M22 8c-4 0-7 3-7 7v6H8v4h3v2a3 3 0 1 0 6 0v-2h11v2a3 3 0 1 0 6 0v-2h3l2-8h-7l-1 4h-4l-1-4h-4v8h-2v-8a7 7 0 0 1 14 0h2V8H22z" fill="#fff"/>
    <circle cx="13" cy="38" r="3" fill="#078347"/>
    <circle cx="35" cy="38" r="3" fill="#078347"/>
    <path d="M25 20l2 8" stroke="#fff" stroke-width="2"/>
    <path d="M12 14h6" stroke="#fff" stroke-width="1.5" stroke-linecap="round"/>
  </g>
</svg>
